<mxfile host="app.diagrams.net" modified="2021-01-19T03:26:56.278Z" agent="5.0 (Windows NT 6.1; Win64; x64) AppleWebKit/537.36 (KHTML, like Gecko) Chrome/87.0.4280.141 Safari/537.36" etag="EzIv4ts2njI-zb-0o1Je" version="14.2.4" type="github">
  <diagram id="RpOZdFJz2ZnUTtg9b3pp" name="Page-1">
    <mxGraphModel dx="1422" dy="794" grid="1" gridSize="10" guides="1" tooltips="1" connect="1" arrows="1" fold="1" page="1" pageScale="1" pageWidth="827" pageHeight="1169" math="0" shadow="0">
      <root>
        <mxCell id="0" />
        <mxCell id="1" parent="0" />
        <mxCell id="KhQuNTbmmZ_W9YEy7QfY-1" value="Saas" style="ellipse;shape=cloud;whiteSpace=wrap;html=1;" vertex="1" parent="1">
          <mxGeometry x="122.5" y="280" width="165" height="70" as="geometry" />
        </mxCell>
        <mxCell id="KhQuNTbmmZ_W9YEy7QfY-2" value="服务2" style="shape=cylinder3;whiteSpace=wrap;html=1;boundedLbl=1;backgroundOutline=1;size=15;" vertex="1" parent="1">
          <mxGeometry x="70" y="100" width="50" height="70" as="geometry" />
        </mxCell>
        <mxCell id="KhQuNTbmmZ_W9YEy7QfY-3" value="服务3" style="shape=cylinder3;whiteSpace=wrap;html=1;boundedLbl=1;backgroundOutline=1;size=15;" vertex="1" parent="1">
          <mxGeometry x="170" y="70" width="50" height="70" as="geometry" />
        </mxCell>
        <mxCell id="KhQuNTbmmZ_W9YEy7QfY-4" value="服务4" style="shape=cylinder3;whiteSpace=wrap;html=1;boundedLbl=1;backgroundOutline=1;size=15;" vertex="1" parent="1">
          <mxGeometry x="280" y="100" width="50" height="70" as="geometry" />
        </mxCell>
        <mxCell id="KhQuNTbmmZ_W9YEy7QfY-5" value="服务5" style="shape=cylinder3;whiteSpace=wrap;html=1;boundedLbl=1;backgroundOutline=1;size=15;" vertex="1" parent="1">
          <mxGeometry x="330" y="220" width="50" height="70" as="geometry" />
        </mxCell>
        <mxCell id="KhQuNTbmmZ_W9YEy7QfY-6" value="服务1" style="shape=cylinder3;whiteSpace=wrap;html=1;boundedLbl=1;backgroundOutline=1;size=15;" vertex="1" parent="1">
          <mxGeometry x="30" y="250" width="50" height="70" as="geometry" />
        </mxCell>
        <mxCell id="KhQuNTbmmZ_W9YEy7QfY-8" value="" style="endArrow=classic;html=1;exitX=1;exitY=0.5;exitDx=0;exitDy=0;exitPerimeter=0;entryX=0.07;entryY=0.4;entryDx=0;entryDy=0;entryPerimeter=0;" edge="1" parent="1" source="KhQuNTbmmZ_W9YEy7QfY-6" target="KhQuNTbmmZ_W9YEy7QfY-1">
          <mxGeometry width="50" height="50" relative="1" as="geometry">
            <mxPoint x="540" y="490" as="sourcePoint" />
            <mxPoint x="590" y="440" as="targetPoint" />
          </mxGeometry>
        </mxCell>
        <mxCell id="KhQuNTbmmZ_W9YEy7QfY-9" value="" style="endArrow=classic;html=1;entryX=0.25;entryY=0.25;entryDx=0;entryDy=0;entryPerimeter=0;" edge="1" parent="1" source="KhQuNTbmmZ_W9YEy7QfY-2" target="KhQuNTbmmZ_W9YEy7QfY-1">
          <mxGeometry width="50" height="50" relative="1" as="geometry">
            <mxPoint x="140" y="230" as="sourcePoint" />
            <mxPoint x="190" y="180" as="targetPoint" />
          </mxGeometry>
        </mxCell>
        <mxCell id="KhQuNTbmmZ_W9YEy7QfY-11" value="" style="endArrow=classic;html=1;exitX=0.145;exitY=1;exitDx=0;exitDy=-4.35;exitPerimeter=0;entryX=0.625;entryY=0.2;entryDx=0;entryDy=0;entryPerimeter=0;" edge="1" parent="1" source="KhQuNTbmmZ_W9YEy7QfY-4" target="KhQuNTbmmZ_W9YEy7QfY-1">
          <mxGeometry width="50" height="50" relative="1" as="geometry">
            <mxPoint x="160" y="500" as="sourcePoint" />
            <mxPoint x="210" y="450" as="targetPoint" />
          </mxGeometry>
        </mxCell>
        <mxCell id="KhQuNTbmmZ_W9YEy7QfY-12" value="" style="endArrow=classic;html=1;exitX=0;exitY=1;exitDx=0;exitDy=-15;exitPerimeter=0;entryX=0.875;entryY=0.5;entryDx=0;entryDy=0;entryPerimeter=0;" edge="1" parent="1" source="KhQuNTbmmZ_W9YEy7QfY-5" target="KhQuNTbmmZ_W9YEy7QfY-1">
          <mxGeometry width="50" height="50" relative="1" as="geometry">
            <mxPoint x="300" y="460" as="sourcePoint" />
            <mxPoint x="350" y="410" as="targetPoint" />
          </mxGeometry>
        </mxCell>
        <mxCell id="KhQuNTbmmZ_W9YEy7QfY-14" value="" style="endArrow=classic;html=1;exitX=0.5;exitY=1;exitDx=0;exitDy=0;entryX=0.5;entryY=0;entryDx=0;entryDy=0;" edge="1" parent="1" source="KhQuNTbmmZ_W9YEy7QfY-32" target="KhQuNTbmmZ_W9YEy7QfY-49">
          <mxGeometry width="50" height="50" relative="1" as="geometry">
            <mxPoint x="990" y="1240" as="sourcePoint" />
            <mxPoint x="1040" y="1190" as="targetPoint" />
          </mxGeometry>
        </mxCell>
        <mxCell id="KhQuNTbmmZ_W9YEy7QfY-15" value="" style="endArrow=classic;html=1;exitX=0.5;exitY=1;exitDx=0;exitDy=0;exitPerimeter=0;entryX=0.4;entryY=0.1;entryDx=0;entryDy=0;entryPerimeter=0;" edge="1" parent="1" source="KhQuNTbmmZ_W9YEy7QfY-3" target="KhQuNTbmmZ_W9YEy7QfY-1">
          <mxGeometry width="50" height="50" relative="1" as="geometry">
            <mxPoint x="190" y="180" as="sourcePoint" />
            <mxPoint x="240" y="130" as="targetPoint" />
          </mxGeometry>
        </mxCell>
        <mxCell id="KhQuNTbmmZ_W9YEy7QfY-16" value="" style="rounded=0;whiteSpace=wrap;html=1;" vertex="1" parent="1">
          <mxGeometry x="110" y="440" width="195" height="220" as="geometry" />
        </mxCell>
        <mxCell id="KhQuNTbmmZ_W9YEy7QfY-17" value="管钉APP" style="text;html=1;strokeColor=none;fillColor=none;align=center;verticalAlign=middle;whiteSpace=wrap;rounded=0;" vertex="1" parent="1">
          <mxGeometry x="170" y="460" width="80" height="20" as="geometry" />
        </mxCell>
        <mxCell id="KhQuNTbmmZ_W9YEy7QfY-18" value="管钉基础服务" style="rounded=0;whiteSpace=wrap;html=1;fillColor=#fff2cc;strokeColor=#d6b656;" vertex="1" parent="1">
          <mxGeometry x="127.5" y="490" width="160" height="40" as="geometry" />
        </mxCell>
        <mxCell id="KhQuNTbmmZ_W9YEy7QfY-20" value="服务1" style="rounded=0;whiteSpace=wrap;html=1;" vertex="1" parent="1">
          <mxGeometry x="125" y="545" width="35" height="35" as="geometry" />
        </mxCell>
        <mxCell id="KhQuNTbmmZ_W9YEy7QfY-22" value="服务2" style="rounded=0;whiteSpace=wrap;html=1;" vertex="1" parent="1">
          <mxGeometry x="167" y="545" width="35" height="35" as="geometry" />
        </mxCell>
        <mxCell id="KhQuNTbmmZ_W9YEy7QfY-23" value="服务3" style="rounded=0;whiteSpace=wrap;html=1;" vertex="1" parent="1">
          <mxGeometry x="210" y="545" width="35" height="35" as="geometry" />
        </mxCell>
        <mxCell id="KhQuNTbmmZ_W9YEy7QfY-24" value="服务4" style="rounded=0;whiteSpace=wrap;html=1;" vertex="1" parent="1">
          <mxGeometry x="253" y="545" width="35" height="35" as="geometry" />
        </mxCell>
        <mxCell id="KhQuNTbmmZ_W9YEy7QfY-25" value="服务7" style="rounded=0;whiteSpace=wrap;html=1;" vertex="1" parent="1">
          <mxGeometry x="209" y="600" width="35" height="35" as="geometry" />
        </mxCell>
        <mxCell id="KhQuNTbmmZ_W9YEy7QfY-26" value="服务6" style="rounded=0;whiteSpace=wrap;html=1;" vertex="1" parent="1">
          <mxGeometry x="167" y="600" width="35" height="35" as="geometry" />
        </mxCell>
        <mxCell id="KhQuNTbmmZ_W9YEy7QfY-27" value="服务5" style="rounded=0;whiteSpace=wrap;html=1;" vertex="1" parent="1">
          <mxGeometry x="125" y="600" width="35" height="35" as="geometry" />
        </mxCell>
        <mxCell id="KhQuNTbmmZ_W9YEy7QfY-28" value="服务8" style="rounded=0;whiteSpace=wrap;html=1;" vertex="1" parent="1">
          <mxGeometry x="253" y="600" width="35" height="35" as="geometry" />
        </mxCell>
        <mxCell id="KhQuNTbmmZ_W9YEy7QfY-29" value="" style="shape=doubleArrow;direction=south;whiteSpace=wrap;html=1;" vertex="1" parent="1">
          <mxGeometry x="200" y="350" width="10" height="90" as="geometry" />
        </mxCell>
        <mxCell id="KhQuNTbmmZ_W9YEy7QfY-30" value="管钉其实就是咱们的Saas的一个载体，类似于支付宝" style="text;html=1;fillColor=none;align=center;verticalAlign=middle;whiteSpace=wrap;rounded=0;" vertex="1" parent="1">
          <mxGeometry x="220" y="365" width="165" height="60" as="geometry" />
        </mxCell>
        <mxCell id="KhQuNTbmmZ_W9YEy7QfY-33" value="" style="group" vertex="1" connectable="0" parent="1">
          <mxGeometry x="550" y="773" width="190" height="90" as="geometry" />
        </mxCell>
        <mxCell id="KhQuNTbmmZ_W9YEy7QfY-32" value="" style="rounded=0;whiteSpace=wrap;html=1;strokeColor=#000000;" vertex="1" parent="KhQuNTbmmZ_W9YEy7QfY-33">
          <mxGeometry width="190" height="90" as="geometry" />
        </mxCell>
        <mxCell id="KhQuNTbmmZ_W9YEy7QfY-31" value="满惠公司(或其它)" style="verticalLabelPosition=bottom;verticalAlign=top;html=1;shape=mxgraph.basic.banner;strokeColor=#6c8ebf;fillColor=#dae8fc;" vertex="1" parent="KhQuNTbmmZ_W9YEy7QfY-33">
          <mxGeometry x="45" y="7" width="100" height="50" as="geometry" />
        </mxCell>
        <mxCell id="KhQuNTbmmZ_W9YEy7QfY-34" value="" style="rounded=0;whiteSpace=wrap;html=1;" vertex="1" parent="1">
          <mxGeometry x="107.5" y="740" width="195" height="220" as="geometry" />
        </mxCell>
        <mxCell id="KhQuNTbmmZ_W9YEy7QfY-35" value="管钉APP" style="text;html=1;strokeColor=none;fillColor=none;align=center;verticalAlign=middle;whiteSpace=wrap;rounded=0;" vertex="1" parent="1">
          <mxGeometry x="167.5" y="760" width="80" height="20" as="geometry" />
        </mxCell>
        <mxCell id="KhQuNTbmmZ_W9YEy7QfY-36" value="管钉基础服务" style="rounded=0;whiteSpace=wrap;html=1;fillColor=#fff2cc;strokeColor=#d6b656;" vertex="1" parent="1">
          <mxGeometry x="125" y="790" width="160" height="40" as="geometry" />
        </mxCell>
        <mxCell id="KhQuNTbmmZ_W9YEy7QfY-37" value="服务1" style="rounded=0;whiteSpace=wrap;html=1;" vertex="1" parent="1">
          <mxGeometry x="122.5" y="845" width="35" height="35" as="geometry" />
        </mxCell>
        <mxCell id="KhQuNTbmmZ_W9YEy7QfY-38" value="服务2" style="rounded=0;whiteSpace=wrap;html=1;fillColor=#f8cecc;strokeColor=#b85450;" vertex="1" parent="1">
          <mxGeometry x="164.5" y="845" width="35" height="35" as="geometry" />
        </mxCell>
        <mxCell id="KhQuNTbmmZ_W9YEy7QfY-39" value="服务3" style="rounded=0;whiteSpace=wrap;html=1;" vertex="1" parent="1">
          <mxGeometry x="207.5" y="845" width="35" height="35" as="geometry" />
        </mxCell>
        <mxCell id="KhQuNTbmmZ_W9YEy7QfY-40" value="服务4" style="rounded=0;whiteSpace=wrap;html=1;" vertex="1" parent="1">
          <mxGeometry x="250.5" y="845" width="35" height="35" as="geometry" />
        </mxCell>
        <mxCell id="KhQuNTbmmZ_W9YEy7QfY-41" value="服务7" style="rounded=0;whiteSpace=wrap;html=1;fillColor=#f8cecc;strokeColor=#b85450;" vertex="1" parent="1">
          <mxGeometry x="206.5" y="900" width="35" height="35" as="geometry" />
        </mxCell>
        <mxCell id="KhQuNTbmmZ_W9YEy7QfY-42" value="服务6" style="rounded=0;whiteSpace=wrap;html=1;" vertex="1" parent="1">
          <mxGeometry x="164.5" y="900" width="35" height="35" as="geometry" />
        </mxCell>
        <mxCell id="KhQuNTbmmZ_W9YEy7QfY-43" value="服务5" style="rounded=0;whiteSpace=wrap;html=1;" vertex="1" parent="1">
          <mxGeometry x="122.5" y="900" width="35" height="35" as="geometry" />
        </mxCell>
        <mxCell id="KhQuNTbmmZ_W9YEy7QfY-44" value="服务8" style="rounded=0;whiteSpace=wrap;html=1;" vertex="1" parent="1">
          <mxGeometry x="250.5" y="900" width="35" height="35" as="geometry" />
        </mxCell>
        <mxCell id="KhQuNTbmmZ_W9YEy7QfY-45" value="" style="endArrow=classic;html=1;exitX=0;exitY=0.25;exitDx=0;exitDy=0;entryX=1;entryY=0.25;entryDx=0;entryDy=0;" edge="1" parent="1" source="KhQuNTbmmZ_W9YEy7QfY-32" target="KhQuNTbmmZ_W9YEy7QfY-34">
          <mxGeometry width="50" height="50" relative="1" as="geometry">
            <mxPoint x="550" y="830" as="sourcePoint" />
            <mxPoint x="600" y="780" as="targetPoint" />
          </mxGeometry>
        </mxCell>
        <mxCell id="KhQuNTbmmZ_W9YEy7QfY-46" value="" style="endArrow=classic;html=1;exitX=1.003;exitY=0.455;exitDx=0;exitDy=0;entryX=0;entryY=0.75;entryDx=0;entryDy=0;exitPerimeter=0;" edge="1" parent="1" source="KhQuNTbmmZ_W9YEy7QfY-34" target="KhQuNTbmmZ_W9YEy7QfY-32">
          <mxGeometry width="50" height="50" relative="1" as="geometry">
            <mxPoint x="550" y="830" as="sourcePoint" />
            <mxPoint x="600" y="780" as="targetPoint" />
          </mxGeometry>
        </mxCell>
        <mxCell id="KhQuNTbmmZ_W9YEy7QfY-47" value="满惠入驻，购买相应服务" style="text;html=1;strokeColor=none;fillColor=none;align=center;verticalAlign=middle;whiteSpace=wrap;rounded=0;" vertex="1" parent="1">
          <mxGeometry x="360" y="773" width="150" height="20" as="geometry" />
        </mxCell>
        <mxCell id="KhQuNTbmmZ_W9YEy7QfY-48" value="Saas为满惠分配一个最高权限的用户" style="text;html=1;strokeColor=none;fillColor=none;align=center;verticalAlign=middle;whiteSpace=wrap;rounded=0;" vertex="1" parent="1">
          <mxGeometry x="310" y="845" width="226" height="10" as="geometry" />
        </mxCell>
        <mxCell id="KhQuNTbmmZ_W9YEy7QfY-49" value="" style="rounded=0;whiteSpace=wrap;html=1;strokeColor=#000000;" vertex="1" parent="1">
          <mxGeometry x="545" y="1018" width="200" height="200" as="geometry" />
        </mxCell>
        <mxCell id="KhQuNTbmmZ_W9YEy7QfY-50" value="管钉APP/购买企业管理端" style="text;html=1;strokeColor=none;fillColor=none;align=center;verticalAlign=middle;whiteSpace=wrap;rounded=0;" vertex="1" parent="1">
          <mxGeometry x="570" y="1038" width="150" height="20" as="geometry" />
        </mxCell>
        <mxCell id="KhQuNTbmmZ_W9YEy7QfY-51" value="管钉基础服务配置" style="rounded=0;whiteSpace=wrap;html=1;fillColor=#fff2cc;strokeColor=#d6b656;" vertex="1" parent="1">
          <mxGeometry x="565" y="1078" width="160" height="40" as="geometry" />
        </mxCell>
        <mxCell id="KhQuNTbmmZ_W9YEy7QfY-53" value="服务2配置" style="rounded=0;whiteSpace=wrap;html=1;fillColor=#f8cecc;strokeColor=#b85450;" vertex="1" parent="1">
          <mxGeometry x="570" y="1158" width="70" height="40" as="geometry" />
        </mxCell>
        <mxCell id="KhQuNTbmmZ_W9YEy7QfY-54" value="服务7配置" style="rounded=0;whiteSpace=wrap;html=1;fillColor=#f8cecc;strokeColor=#b85450;" vertex="1" parent="1">
          <mxGeometry x="655" y="1158" width="75" height="40" as="geometry" />
        </mxCell>
        <mxCell id="KhQuNTbmmZ_W9YEy7QfY-55" value="满惠超级管理员" style="shape=umlActor;verticalLabelPosition=bottom;verticalAlign=top;html=1;outlineConnect=0;strokeColor=#000000;" vertex="1" parent="1">
          <mxGeometry x="678" y="900" width="22" height="30" as="geometry" />
        </mxCell>
        <mxCell id="KhQuNTbmmZ_W9YEy7QfY-57" value="为超级管理员提供:&lt;br&gt;1、满惠自己的组织架构。&lt;br&gt;2、满惠自己的角色权限。&lt;br&gt;3、添加自己的用户信息。&lt;br&gt;4、为自己的用户授权操作。&lt;br&gt;5、查看自己在Saas中相应的权益。&lt;br&gt;6、其它更多操作" style="text;html=1;fillColor=#d5e8d4;align=left;verticalAlign=middle;whiteSpace=wrap;rounded=0;strokeColor=#82b366;" vertex="1" parent="1">
          <mxGeometry x="827" y="1024" width="220" height="122" as="geometry" />
        </mxCell>
        <mxCell id="KhQuNTbmmZ_W9YEy7QfY-58" value="" style="endArrow=none;html=1;exitX=1;exitY=0.18;exitDx=0;exitDy=0;exitPerimeter=0;entryX=0;entryY=0.25;entryDx=0;entryDy=0;" edge="1" parent="1" source="KhQuNTbmmZ_W9YEy7QfY-49" target="KhQuNTbmmZ_W9YEy7QfY-57">
          <mxGeometry width="50" height="50" relative="1" as="geometry">
            <mxPoint x="750" y="1100" as="sourcePoint" />
            <mxPoint x="800" y="1050" as="targetPoint" />
          </mxGeometry>
        </mxCell>
        <mxCell id="KhQuNTbmmZ_W9YEy7QfY-59" value="" style="endArrow=none;html=1;exitX=0.5;exitY=1;exitDx=0;exitDy=0;" edge="1" parent="1" source="KhQuNTbmmZ_W9YEy7QfY-16" target="KhQuNTbmmZ_W9YEy7QfY-34">
          <mxGeometry width="50" height="50" relative="1" as="geometry">
            <mxPoint x="550" y="710" as="sourcePoint" />
            <mxPoint x="600" y="660" as="targetPoint" />
          </mxGeometry>
        </mxCell>
        <mxCell id="KhQuNTbmmZ_W9YEy7QfY-60" value="添加的用户1" style="shape=umlActor;verticalLabelPosition=bottom;verticalAlign=top;html=1;outlineConnect=0;strokeColor=#FF3333;" vertex="1" parent="1">
          <mxGeometry x="880" y="1370" width="30" height="60" as="geometry" />
        </mxCell>
        <mxCell id="KhQuNTbmmZ_W9YEy7QfY-61" value="添加的用户2" style="shape=umlActor;verticalLabelPosition=bottom;verticalAlign=top;html=1;outlineConnect=0;strokeColor=#3333FF;" vertex="1" parent="1">
          <mxGeometry x="880" y="1540" width="30" height="60" as="geometry" />
        </mxCell>
        <mxCell id="KhQuNTbmmZ_W9YEy7QfY-62" value="添加的用户3" style="shape=umlActor;verticalLabelPosition=bottom;verticalAlign=top;html=1;outlineConnect=0;strokeColor=#3333FF;" vertex="1" parent="1">
          <mxGeometry x="880" y="1724" width="30" height="60" as="geometry" />
        </mxCell>
      </root>
    </mxGraphModel>
  </diagram>
</mxfile>
